<svg xmlns="http://www.w3.org/2000/svg" xmlns:xlink="http://www.w3.org/1999/xlink" width="1080" zoomAndPan="magnify" viewBox="0 0 810 809.999993" height="1080" preserveAspectRatio="xMidYMid meet" version="1.0"><defs><clipPath id="id1"><path d="M 68 213 L 408 213 L 408 793 L 68 793 Z M 68 213 " clip-rule="nonzero"/></clipPath><clipPath id="id2"><path d="M 908.320312 305.253906 L 576.242188 888.605469 L -98.359375 504.582031 L 233.71875 -78.769531 Z M 908.320312 305.253906 " clip-rule="nonzero"/></clipPath><clipPath id="id3"><path d="M 908.320312 305.253906 L 576.242188 888.605469 L -98.359375 504.582031 L 233.71875 -78.769531 Z M 908.320312 305.253906 " clip-rule="nonzero"/></clipPath><clipPath id="id4"><path d="M 278 332 L 406 332 L 406 553 L 278 553 Z M 278 332 " clip-rule="nonzero"/></clipPath><clipPath id="id5"><path d="M 908.320312 305.253906 L 576.242188 888.605469 L -98.359375 504.582031 L 233.71875 -78.769531 Z M 908.320312 305.253906 " clip-rule="nonzero"/></clipPath><clipPath id="id6"><path d="M 908.320312 305.253906 L 576.242188 888.605469 L -98.359375 504.582031 L 233.71875 -78.769531 Z M 908.320312 305.253906 " clip-rule="nonzero"/></clipPath><clipPath id="id7"><path d="M 278 17 L 740 17 L 740 405 L 278 405 Z M 278 17 " clip-rule="nonzero"/></clipPath><clipPath id="id8"><path d="M 908.320312 305.253906 L 576.242188 888.605469 L -98.359375 504.582031 L 233.71875 -78.769531 Z M 908.320312 305.253906 " clip-rule="nonzero"/></clipPath><clipPath id="id9"><path d="M 908.320312 305.253906 L 576.242188 888.605469 L -98.359375 504.582031 L 233.71875 -78.769531 Z M 908.320312 305.253906 " clip-rule="nonzero"/></clipPath><clipPath id="id10"><path d="M 68 135 L 307 135 L 307 274 L 68 274 Z M 68 135 " clip-rule="nonzero"/></clipPath><clipPath id="id11"><path d="M 908.320312 305.253906 L 576.242188 888.605469 L -98.359375 504.582031 L 233.71875 -78.769531 Z M 908.320312 305.253906 " clip-rule="nonzero"/></clipPath><clipPath id="id12"><path d="M 908.320312 305.253906 L 576.242188 888.605469 L -98.359375 504.582031 L 233.71875 -78.769531 Z M 908.320312 305.253906 " clip-rule="nonzero"/></clipPath><clipPath id="id13"><path d="M 405 209 L 742 209 L 742 650 L 405 650 Z M 405 209 " clip-rule="nonzero"/></clipPath><clipPath id="id14"><path d="M 908.320312 305.253906 L 576.242188 888.605469 L -98.359375 504.582031 L 233.71875 -78.769531 Z M 908.320312 305.253906 " clip-rule="nonzero"/></clipPath><clipPath id="id15"><path d="M 908.320312 305.253906 L 576.242188 888.605469 L -98.359375 504.582031 L 233.71875 -78.769531 Z M 908.320312 305.253906 " clip-rule="nonzero"/></clipPath><clipPath id="id16"><path d="M 406 589 L 549 589 L 549 793 L 406 793 Z M 406 589 " clip-rule="nonzero"/></clipPath><clipPath id="id17"><path d="M 908.320312 305.253906 L 576.242188 888.605469 L -98.359375 504.582031 L 233.71875 -78.769531 Z M 908.320312 305.253906 " clip-rule="nonzero"/></clipPath><clipPath id="id18"><path d="M 908.320312 305.253906 L 576.242188 888.605469 L -98.359375 504.582031 L 233.71875 -78.769531 Z M 908.320312 305.253906 " clip-rule="nonzero"/></clipPath><clipPath id="id19"><path d="M 405 409 L 653 409 L 653 650 L 405 650 Z M 405 409 " clip-rule="nonzero"/></clipPath><clipPath id="id20"><path d="M 908.320312 305.253906 L 576.242188 888.605469 L -98.359375 504.582031 L 233.71875 -78.769531 Z M 908.320312 305.253906 " clip-rule="nonzero"/></clipPath><clipPath id="id21"><path d="M 908.320312 305.253906 L 576.242188 888.605469 L -98.359375 504.582031 L 233.71875 -78.769531 Z M 908.320312 305.253906 " clip-rule="nonzero"/></clipPath><clipPath id="id22"><path d="M 173 195 L 307 195 L 307 274 L 173 274 Z M 173 195 " clip-rule="nonzero"/></clipPath><clipPath id="id23"><path d="M 908.320312 305.253906 L 576.242188 888.605469 L -98.359375 504.582031 L 233.71875 -78.769531 Z M 908.320312 305.253906 " clip-rule="nonzero"/></clipPath><clipPath id="id24"><path d="M 908.320312 305.253906 L 576.242188 888.605469 L -98.359375 504.582031 L 233.71875 -78.769531 Z M 908.320312 305.253906 " clip-rule="nonzero"/></clipPath><clipPath id="id25"><path d="M 406 589 L 548 589 L 548 673 L 406 673 Z M 406 589 " clip-rule="nonzero"/></clipPath><clipPath id="id26"><path d="M 908.320312 305.253906 L 576.242188 888.605469 L -98.359375 504.582031 L 233.71875 -78.769531 Z M 908.320312 305.253906 " clip-rule="nonzero"/></clipPath><clipPath id="id27"><path d="M 908.320312 305.253906 L 576.242188 888.605469 L -98.359375 504.582031 L 233.71875 -78.769531 Z M 908.320312 305.253906 " clip-rule="nonzero"/></clipPath><clipPath id="id28"><path d="M 295 75 L 515 75 L 515 323 L 295 323 Z M 295 75 " clip-rule="nonzero"/></clipPath><clipPath id="id29"><path d="M 908.320312 305.253906 L 576.242188 888.605469 L -98.359375 504.582031 L 233.71875 -78.769531 Z M 908.320312 305.253906 " clip-rule="nonzero"/></clipPath><clipPath id="id30"><path d="M 908.320312 305.253906 L 576.242188 888.605469 L -98.359375 504.582031 L 233.71875 -78.769531 Z M 908.320312 305.253906 " clip-rule="nonzero"/></clipPath><clipPath id="id31"><path d="M 547 589 L 549 589 L 549 710 L 547 710 Z M 547 589 " clip-rule="nonzero"/></clipPath><clipPath id="id32"><path d="M 908.320312 305.253906 L 576.242188 888.605469 L -98.359375 504.582031 L 233.71875 -78.769531 Z M 908.320312 305.253906 " clip-rule="nonzero"/></clipPath><clipPath id="id33"><path d="M 908.320312 305.253906 L 576.242188 888.605469 L -98.359375 504.582031 L 233.71875 -78.769531 Z M 908.320312 305.253906 " clip-rule="nonzero"/></clipPath><clipPath id="id34"><path d="M 175 480 L 548 480 L 548 673 L 175 673 Z M 175 480 " clip-rule="nonzero"/></clipPath><clipPath id="id35"><path d="M 908.320312 305.253906 L 576.242188 888.605469 L -98.359375 504.582031 L 233.71875 -78.769531 Z M 908.320312 305.253906 " clip-rule="nonzero"/></clipPath><clipPath id="id36"><path d="M 908.320312 305.253906 L 576.242188 888.605469 L -98.359375 504.582031 L 233.71875 -78.769531 Z M 908.320312 305.253906 " clip-rule="nonzero"/></clipPath><clipPath id="id37"><path d="M 173 195 L 307 195 L 307 541 L 173 541 Z M 173 195 " clip-rule="nonzero"/></clipPath><clipPath id="id38"><path d="M 908.320312 305.253906 L 576.242188 888.605469 L -98.359375 504.582031 L 233.71875 -78.769531 Z M 908.320312 305.253906 " clip-rule="nonzero"/></clipPath><clipPath id="id39"><path d="M 908.320312 305.253906 L 576.242188 888.605469 L -98.359375 504.582031 L 233.71875 -78.769531 Z M 908.320312 305.253906 " clip-rule="nonzero"/></clipPath></defs><g clip-path="url(#id1)"><g clip-path="url(#id2)"><g clip-path="url(#id3)"><path fill="rgb(3.919983%, 0%, 41.958618%)" d="M 175.605469 540.910156 L 173.929688 273.363281 L 68.09375 213.117188 L 70.492188 600.695312 L 407.417969 792.492188 L 406.671875 672.449219 L 175.605469 540.910156 " fill-opacity="1" fill-rule="nonzero"/></g></g></g><g clip-path="url(#id4)"><g clip-path="url(#id5)"><g clip-path="url(#id6)"><path fill="rgb(3.919983%, 0%, 41.958618%)" d="M 278.273438 332.761719 L 279.191406 480.269531 L 405.929688 552.414062 L 405.011719 404.910156 L 278.273438 332.761719 " fill-opacity="1" fill-rule="nonzero"/></g></g></g><g clip-path="url(#id7)"><g clip-path="url(#id8)"><g clip-path="url(#id9)"><path fill="rgb(23.919678%, 18.03894%, 81.959534%)" d="M 739.507812 209.121094 L 402.582031 17.324219 L 303.960938 75.046875 L 514.148438 194.695312 L 295.488281 322.691406 L 278.273438 332.761719 L 405.011719 404.910156 L 739.507812 209.121094 " fill-opacity="1" fill-rule="nonzero"/></g></g></g><g clip-path="url(#id10)"><g clip-path="url(#id11)"><g clip-path="url(#id12)"><path fill="rgb(23.919678%, 18.03894%, 81.959534%)" d="M 306.207031 195.933594 L 200.371094 135.6875 L 68.09375 213.117188 L 173.929688 273.363281 L 306.207031 195.933594 " fill-opacity="1" fill-rule="nonzero"/></g></g></g><g clip-path="url(#id13)"><g clip-path="url(#id14)"><g clip-path="url(#id15)"><path fill="rgb(14.898682%, 9.408569%, 68.629456%)" d="M 652.1875 649.226562 L 741.917969 596.695312 L 739.507812 209.121094 L 405.011719 404.910156 L 405.929688 552.414062 L 405.945312 552.425781 L 650.699219 409.164062 L 652.1875 649.226562 " fill-opacity="1" fill-rule="nonzero"/></g></g></g><g clip-path="url(#id16)"><g clip-path="url(#id17)"><g clip-path="url(#id18)"><path fill="rgb(14.898682%, 9.408569%, 68.629456%)" d="M 548.59375 709.851562 L 547.851562 589.832031 L 406.683594 672.457031 L 406.671875 672.449219 L 407.417969 792.492188 L 548.59375 709.855469 L 548.59375 709.851562 " fill-opacity="1" fill-rule="nonzero"/></g></g></g><g clip-path="url(#id19)"><g clip-path="url(#id20)"><g clip-path="url(#id21)"><path fill="rgb(3.919983%, 0%, 41.958618%)" d="M 547.851562 589.832031 L 652.1875 649.226562 L 650.699219 409.164062 L 405.945312 552.425781 L 443.515625 530.4375 L 547.851562 589.832031 " fill-opacity="1" fill-rule="nonzero"/></g></g></g><g clip-path="url(#id22)"><g clip-path="url(#id23)"><g clip-path="url(#id24)"><path fill="rgb(3.919983%, 0%, 41.958618%)" d="M 173.929688 273.363281 L 306.207031 195.933594 Z M 173.929688 273.363281 " fill-opacity="1" fill-rule="nonzero"/></g></g></g><g clip-path="url(#id25)"><g clip-path="url(#id26)"><g clip-path="url(#id27)"><path fill="rgb(3.919983%, 0%, 41.958618%)" d="M 406.671875 672.449219 L 406.683594 672.457031 L 547.851562 589.832031 Z M 406.671875 672.449219 " fill-opacity="1" fill-rule="nonzero"/></g></g></g><g clip-path="url(#id28)"><g clip-path="url(#id29)"><g clip-path="url(#id30)"><path fill="rgb(3.919983%, 0%, 41.958618%)" d="M 303.960938 75.046875 L 306.207031 195.933594 L 306.964844 315.96875 L 295.488281 322.691406 L 514.148438 194.695312 L 303.960938 75.046875 " fill-opacity="1" fill-rule="nonzero"/></g></g></g><g clip-path="url(#id31)"><g clip-path="url(#id32)"><g clip-path="url(#id33)"><path stroke-linecap="round" transform="matrix(-0.0851266, 0.149539, 0.149586, 0.085153, 213.147619, -293.626108)" fill="none" stroke-linejoin="round" d="M 3499.65039 4229.129923 L 4103.680983 4577.834752 " stroke="rgb(50.19989%, 79.998779%, 15.689087%)" stroke-width="1.2" stroke-opacity="1" stroke-miterlimit="4"/></g></g></g><g clip-path="url(#id34)"><g clip-path="url(#id35)"><g clip-path="url(#id36)"><path fill="rgb(23.919678%, 18.03894%, 81.959534%)" d="M 443.515625 530.4375 L 405.945312 552.425781 L 279.191406 480.269531 L 175.605469 540.910156 L 406.671875 672.449219 L 547.851562 589.832031 L 443.515625 530.4375 " fill-opacity="1" fill-rule="nonzero"/></g></g></g><g clip-path="url(#id37)"><g clip-path="url(#id38)"><g clip-path="url(#id39)"><path fill="rgb(14.898682%, 9.408569%, 68.629456%)" d="M 278.273438 332.761719 L 295.488281 322.691406 L 306.964844 315.96875 L 306.207031 195.933594 L 173.929688 273.363281 L 175.605469 540.910156 L 279.191406 480.269531 L 278.273438 332.761719 " fill-opacity="1" fill-rule="nonzero"/></g></g></g></svg>