<svg xmlns="http://www.w3.org/2000/svg" xmlns:xlink="http://www.w3.org/1999/xlink" width="1080" zoomAndPan="magnify" viewBox="0 0 810 809.999993" height="1080" preserveAspectRatio="xMidYMid meet" version="1.0"><defs><clipPath id="id1"><path d="M 67 214 L 409 214 L 409 793 L 67 793 Z M 67 214 " clip-rule="nonzero"/></clipPath><clipPath id="id2"><path d="M 907.957031 303.4375 L 577.988281 887.984375 L -97.996094 506.402344 L 231.972656 -78.148438 Z M 907.957031 303.4375 " clip-rule="nonzero"/></clipPath><clipPath id="id3"><path d="M 907.957031 303.4375 L 577.988281 887.984375 L -97.996094 506.402344 L 231.972656 -78.148438 Z M 907.957031 303.4375 " clip-rule="nonzero"/></clipPath><clipPath id="id4"><path d="M 278 333 L 407 333 L 407 553 L 278 553 Z M 278 333 " clip-rule="nonzero"/></clipPath><clipPath id="id5"><path d="M 907.957031 303.4375 L 577.988281 887.984375 L -97.996094 506.402344 L 231.972656 -78.148438 Z M 907.957031 303.4375 " clip-rule="nonzero"/></clipPath><clipPath id="id6"><path d="M 907.957031 303.4375 L 577.988281 887.984375 L -97.996094 506.402344 L 231.972656 -78.148438 Z M 907.957031 303.4375 " clip-rule="nonzero"/></clipPath><clipPath id="id7"><path d="M 278 17 L 739 17 L 739 405 L 278 405 Z M 278 17 " clip-rule="nonzero"/></clipPath><clipPath id="id8"><path d="M 907.957031 303.4375 L 577.988281 887.984375 L -97.996094 506.402344 L 231.972656 -78.148438 Z M 907.957031 303.4375 " clip-rule="nonzero"/></clipPath><clipPath id="id9"><path d="M 907.957031 303.4375 L 577.988281 887.984375 L -97.996094 506.402344 L 231.972656 -78.148438 Z M 907.957031 303.4375 " clip-rule="nonzero"/></clipPath><clipPath id="id10"><path d="M 67 136 L 306 136 L 306 275 L 67 275 Z M 67 136 " clip-rule="nonzero"/></clipPath><clipPath id="id11"><path d="M 907.957031 303.4375 L 577.988281 887.984375 L -97.996094 506.402344 L 231.972656 -78.148438 Z M 907.957031 303.4375 " clip-rule="nonzero"/></clipPath><clipPath id="id12"><path d="M 907.957031 303.4375 L 577.988281 887.984375 L -97.996094 506.402344 L 231.972656 -78.148438 Z M 907.957031 303.4375 " clip-rule="nonzero"/></clipPath><clipPath id="id13"><path d="M 405 207 L 743 207 L 743 649 L 405 649 Z M 405 207 " clip-rule="nonzero"/></clipPath><clipPath id="id14"><path d="M 907.957031 303.4375 L 577.988281 887.984375 L -97.996094 506.402344 L 231.972656 -78.148438 Z M 907.957031 303.4375 " clip-rule="nonzero"/></clipPath><clipPath id="id15"><path d="M 907.957031 303.4375 L 577.988281 887.984375 L -97.996094 506.402344 L 231.972656 -78.148438 Z M 907.957031 303.4375 " clip-rule="nonzero"/></clipPath><clipPath id="id16"><path d="M 407 589 L 550 589 L 550 793 L 407 793 Z M 407 589 " clip-rule="nonzero"/></clipPath><clipPath id="id17"><path d="M 907.957031 303.4375 L 577.988281 887.984375 L -97.996094 506.402344 L 231.972656 -78.148438 Z M 907.957031 303.4375 " clip-rule="nonzero"/></clipPath><clipPath id="id18"><path d="M 907.957031 303.4375 L 577.988281 887.984375 L -97.996094 506.402344 L 231.972656 -78.148438 Z M 907.957031 303.4375 " clip-rule="nonzero"/></clipPath><clipPath id="id19"><path d="M 406 408 L 654 408 L 654 649 L 406 649 Z M 406 408 " clip-rule="nonzero"/></clipPath><clipPath id="id20"><path d="M 907.957031 303.4375 L 577.988281 887.984375 L -97.996094 506.402344 L 231.972656 -78.148438 Z M 907.957031 303.4375 " clip-rule="nonzero"/></clipPath><clipPath id="id21"><path d="M 907.957031 303.4375 L 577.988281 887.984375 L -97.996094 506.402344 L 231.972656 -78.148438 Z M 907.957031 303.4375 " clip-rule="nonzero"/></clipPath><clipPath id="id22"><path d="M 173 196 L 306 196 L 306 275 L 173 275 Z M 173 196 " clip-rule="nonzero"/></clipPath><clipPath id="id23"><path d="M 907.957031 303.4375 L 577.988281 887.984375 L -97.996094 506.402344 L 231.972656 -78.148438 Z M 907.957031 303.4375 " clip-rule="nonzero"/></clipPath><clipPath id="id24"><path d="M 907.957031 303.4375 L 577.988281 887.984375 L -97.996094 506.402344 L 231.972656 -78.148438 Z M 907.957031 303.4375 " clip-rule="nonzero"/></clipPath><clipPath id="id25"><path d="M 407 589 L 549 589 L 549 673 L 407 673 Z M 407 589 " clip-rule="nonzero"/></clipPath><clipPath id="id26"><path d="M 907.957031 303.4375 L 577.988281 887.984375 L -97.996094 506.402344 L 231.972656 -78.148438 Z M 907.957031 303.4375 " clip-rule="nonzero"/></clipPath><clipPath id="id27"><path d="M 907.957031 303.4375 L 577.988281 887.984375 L -97.996094 506.402344 L 231.972656 -78.148438 Z M 907.957031 303.4375 " clip-rule="nonzero"/></clipPath><clipPath id="id28"><path d="M 295 75 L 514 75 L 514 324 L 295 324 Z M 295 75 " clip-rule="nonzero"/></clipPath><clipPath id="id29"><path d="M 907.957031 303.4375 L 577.988281 887.984375 L -97.996094 506.402344 L 231.972656 -78.148438 Z M 907.957031 303.4375 " clip-rule="nonzero"/></clipPath><clipPath id="id30"><path d="M 907.957031 303.4375 L 577.988281 887.984375 L -97.996094 506.402344 L 231.972656 -78.148438 Z M 907.957031 303.4375 " clip-rule="nonzero"/></clipPath><clipPath id="id31"><path d="M 548 589 L 550 589 L 550 710 L 548 710 Z M 548 589 " clip-rule="nonzero"/></clipPath><clipPath id="id32"><path d="M 907.957031 303.4375 L 577.988281 887.984375 L -97.996094 506.402344 L 231.972656 -78.148438 Z M 907.957031 303.4375 " clip-rule="nonzero"/></clipPath><clipPath id="id33"><path d="M 907.957031 303.4375 L 577.988281 887.984375 L -97.996094 506.402344 L 231.972656 -78.148438 Z M 907.957031 303.4375 " clip-rule="nonzero"/></clipPath><clipPath id="id34"><path d="M 176 480 L 549 480 L 549 673 L 176 673 Z M 176 480 " clip-rule="nonzero"/></clipPath><clipPath id="id35"><path d="M 907.957031 303.4375 L 577.988281 887.984375 L -97.996094 506.402344 L 231.972656 -78.148438 Z M 907.957031 303.4375 " clip-rule="nonzero"/></clipPath><clipPath id="id36"><path d="M 907.957031 303.4375 L 577.988281 887.984375 L -97.996094 506.402344 L 231.972656 -78.148438 Z M 907.957031 303.4375 " clip-rule="nonzero"/></clipPath><clipPath id="id37"><path d="M 173 196 L 307 196 L 307 542 L 173 542 Z M 173 196 " clip-rule="nonzero"/></clipPath><clipPath id="id38"><path d="M 907.957031 303.4375 L 577.988281 887.984375 L -97.996094 506.402344 L 231.972656 -78.148438 Z M 907.957031 303.4375 " clip-rule="nonzero"/></clipPath><clipPath id="id39"><path d="M 907.957031 303.4375 L 577.988281 887.984375 L -97.996094 506.402344 L 231.972656 -78.148438 Z M 907.957031 303.4375 " clip-rule="nonzero"/></clipPath></defs><g clip-path="url(#id1)"><g clip-path="url(#id2)"><g clip-path="url(#id3)"><path fill="rgb(44.709778%, 5.488586%, 5.099487%)" d="M 176.097656 541.738281 L 173.457031 274.199219 L 67.402344 214.335938 L 71.203125 601.902344 L 408.820312 792.480469 L 407.640625 672.441406 L 176.097656 541.738281 " fill-opacity="1" fill-rule="nonzero"/></g></g></g><g clip-path="url(#id4)"><g clip-path="url(#id5)"><g clip-path="url(#id6)"><path fill="rgb(44.709778%, 5.488586%, 5.099487%)" d="M 278.011719 333.222656 L 279.464844 480.722656 L 406.460938 552.410156 L 405.011719 404.910156 L 278.011719 333.222656 " fill-opacity="1" fill-rule="nonzero"/></g></g></g><g clip-path="url(#id7)"><g clip-path="url(#id8)"><g clip-path="url(#id9)"><path fill="rgb(89.7995%, 17.248535%, 24.708557%)" d="M 738.796875 207.914062 L 401.183594 17.335938 L 302.769531 75.414062 L 513.386719 194.304688 L 295.191406 323.089844 L 278.011719 333.222656 L 405.011719 404.910156 L 738.796875 207.914062 " fill-opacity="1" fill-rule="nonzero"/></g></g></g><g clip-path="url(#id10)"><g clip-path="url(#id11)"><g clip-path="url(#id12)"><path fill="rgb(89.7995%, 17.248535%, 24.708557%)" d="M 305.453125 196.292969 L 199.398438 136.425781 L 67.402344 214.335938 L 173.457031 274.199219 L 305.453125 196.292969 " fill-opacity="1" fill-rule="nonzero"/></g></g></g><g clip-path="url(#id13)"><g clip-path="url(#id14)"><g clip-path="url(#id15)"><path fill="rgb(65.098572%, 5.488586%, 11.369324%)" d="M 653.070312 648.332031 L 742.609375 595.476562 L 738.796875 207.914062 L 405.011719 404.910156 L 406.460938 552.410156 L 406.480469 552.421875 L 650.710938 408.277344 L 653.070312 648.332031 " fill-opacity="1" fill-rule="nonzero"/></g></g></g><g clip-path="url(#id16)"><g clip-path="url(#id17)"><g clip-path="url(#id18)"><path fill="rgb(65.098572%, 5.488586%, 11.369324%)" d="M 549.695312 709.328125 L 548.519531 589.3125 L 407.652344 672.449219 L 407.640625 672.441406 L 408.820312 792.480469 L 549.691406 709.335938 L 549.695312 709.328125 " fill-opacity="1" fill-rule="nonzero"/></g></g></g><g clip-path="url(#id19)"><g clip-path="url(#id20)"><g clip-path="url(#id21)"><path fill="rgb(44.709778%, 5.488586%, 5.099487%)" d="M 548.519531 589.3125 L 653.070312 648.332031 L 650.710938 408.277344 L 406.480469 552.421875 L 443.96875 530.296875 L 548.519531 589.3125 " fill-opacity="1" fill-rule="nonzero"/></g></g></g><g clip-path="url(#id22)"><g clip-path="url(#id23)"><g clip-path="url(#id24)"><path fill="rgb(44.709778%, 5.488586%, 5.099487%)" d="M 173.457031 274.199219 L 305.453125 196.292969 Z M 173.457031 274.199219 " fill-opacity="1" fill-rule="nonzero"/></g></g></g><g clip-path="url(#id25)"><g clip-path="url(#id26)"><g clip-path="url(#id27)"><path fill="rgb(44.709778%, 5.488586%, 5.099487%)" d="M 407.640625 672.441406 L 407.652344 672.449219 L 548.519531 589.3125 Z M 407.640625 672.441406 " fill-opacity="1" fill-rule="nonzero"/></g></g></g><g clip-path="url(#id28)"><g clip-path="url(#id29)"><g clip-path="url(#id30)"><path fill="rgb(44.709778%, 5.488586%, 5.099487%)" d="M 302.769531 75.414062 L 305.453125 196.292969 L 306.644531 316.324219 L 295.191406 323.089844 L 513.386719 194.304688 L 302.769531 75.414062 " fill-opacity="1" fill-rule="nonzero"/></g></g></g><g clip-path="url(#id31)"><g clip-path="url(#id32)"><g clip-path="url(#id33)"><path stroke-linecap="round" transform="matrix(-0.0845856, 0.149846, 0.149892, 0.0846118, 210.623957, -292.928168)" fill="none" stroke-linejoin="round" d="M 3499.637739 4229.128339 L 4103.66659 4577.831033 " stroke="rgb(50.19989%, 79.998779%, 15.689087%)" stroke-width="1.2" stroke-opacity="1" stroke-miterlimit="4"/></g></g></g><g clip-path="url(#id34)"><g clip-path="url(#id35)"><g clip-path="url(#id36)"><path fill="rgb(89.7995%, 17.248535%, 24.708557%)" d="M 443.96875 530.296875 L 406.480469 552.421875 L 279.464844 480.722656 L 176.097656 541.738281 L 407.640625 672.441406 L 548.519531 589.3125 L 443.96875 530.296875 " fill-opacity="1" fill-rule="nonzero"/></g></g></g><g clip-path="url(#id37)"><g clip-path="url(#id38)"><g clip-path="url(#id39)"><path fill="rgb(65.098572%, 5.488586%, 11.369324%)" d="M 278.011719 333.222656 L 295.191406 323.089844 L 306.644531 316.324219 L 305.453125 196.292969 L 173.457031 274.199219 L 176.097656 541.738281 L 279.464844 480.722656 L 278.011719 333.222656 " fill-opacity="1" fill-rule="nonzero"/></g></g></g></svg>